<?xml version="1.0" encoding="UTF-8"?>
<svg width="16px" height="16px" viewBox="0 0 16 16" version="1.1" xmlns="http://www.w3.org/2000/svg" xmlns:xlink="http://www.w3.org/1999/xlink">
    <title>路径</title>
    <g id="页面-1" stroke="none" stroke-width="1" fill="none" fill-rule="evenodd">
        <g id="反洗钱-切图" transform="translate(-772, -866)" fill="#CC2234">
            <g id="编组" transform="translate(772, 866)">
                <path d="M8.81080229,0.532746373 L10.5808315,4.28202 C10.7120653,4.56234736 10.9672667,4.75676296 11.262654,4.80144079 L15.2226428,5.40113568 C15.564632,5.45142393 15.8492499,5.70127523 15.9558635,6.04479214 C16.0624771,6.38830905 15.9724154,6.7653317 15.7238501,7.0160621 L12.8610988,9.93898448 C12.6475053,10.1554766 12.5495532,10.4680785 12.5992067,10.7747797 L13.2719984,14.8876479 C13.3314696,15.2431821 13.1919642,15.6030723 12.9125475,15.8149446 C12.6331307,16.0268169 12.2626731,16.0536144 11.9580226,15.8839914 L8.41796417,13.9432465 C8.15504102,13.7988295 7.84102652,13.7988295 7.57810337,13.9432465 L4.03804491,15.8887134 C3.73260889,16.0592304 3.3608362,16.0321159 3.08099039,15.8189126 C2.80114458,15.6057093 2.66249671,15.2439548 2.72406913,14.8876479 L3.40137623,10.7653357 C3.45102972,10.4586345 3.35307757,10.1460327 3.13948416,9.92954048 L0.276732821,7.0160621 C0.028363647,6.76597858 -0.0621675421,6.38982695 0.0434013589,6.04658394 C0.14897026,5.70334093 0.432214872,5.45291093 0.773424681,5.40113568 L4.72889815,4.80144079 C5.02428541,4.75676296 5.27948685,4.56234736 5.41072065,4.28202 L7.18526525,0.532746373 C7.33615703,0.206937023 7.65186429,0 7.99803377,0 C8.34420325,0 8.65991051,0.206937023 8.81080229,0.532746373 L8.81080229,0.532746373 Z" id="路径" fill-rule="nonzero"></path>
            </g>
        </g>
    </g>
</svg>