<?xml version="1.0" encoding="UTF-8"?>
<svg width="24px" height="24px" viewBox="0 0 24 24" version="1.1" xmlns="http://www.w3.org/2000/svg" xmlns:xlink="http://www.w3.org/1999/xlink">
    <title>形状</title>
    <defs>
        <linearGradient x1="50%" y1="0%" x2="50%" y2="100%" id="linearGradient-1">
            <stop stop-color="#EEEEEE" offset="0%"></stop>
            <stop stop-color="#0481D9" offset="100%"></stop>
        </linearGradient>
    </defs>
    <g id="页面-1" stroke="none" stroke-width="1" fill="none" fill-rule="evenodd">
        <g id="反洗钱-切图" transform="translate(-1583, -879)" fill="url(#linearGradient-1)">
            <g id="日期" transform="translate(1583, 871)">
                <g id="编组" transform="translate(0, 8)" fill-rule="nonzero">
                    <path d="M17.4545454,0 C18.0570379,0 18.5454545,0.488583661 18.5454546,1.09107611 L18.5454546,2.18198521 L21.8181818,2.18198521 C23.0231667,2.18198521 24,3.15881848 24,4.36380339 L24,21.8183489 C24,22.397003 23.7701305,22.951957 23.3609603,23.3611273 C22.95179,23.7702976 22.396836,24.000167 21.8181818,24.000167 L2.18181817,24.000167 C1.60316402,24.000167 1.04821003,23.7702976 0.639039748,23.3611273 C0.229869469,22.951957 0,22.397003 0,21.8183489 L0,4.36380339 C0,3.15881848 0.97683327,2.18198521 2.18181817,2.18198521 L5.45454545,2.18198521 L5.45454545,1.09107611 C5.45448578,0.701292054 5.66239882,0.341091199 5.99995178,0.146181943 C6.33750473,-0.0487273142 6.75340435,-0.0487273142 7.0909573,0.146181943 C7.42851025,0.341091199 7.6364233,0.701292054 7.63636362,1.09107611 L7.63636362,2.18198521 L16.3636364,2.18198521 L16.3636364,1.09107611 C16.3636364,0.488583671 16.852053,0 17.4545454,0 Z M21.8181818,9.81834886 L2.18181817,9.81834886 L2.18181817,21.8183489 L21.8181818,21.8183489 L21.8181818,9.81834886 Z M9.81818183,16.3638034 C10.4206091,16.3638956 10.9089239,16.8522853 10.9089239,17.4547125 C10.9089239,18.0571397 10.4206091,18.5455294 9.81818183,18.5456216 L6.54545455,18.5456216 C5.94302732,18.5455294 5.45471246,18.0571397 5.45471246,17.4547125 C5.45471246,16.8522853 5.94302732,16.3638956 6.54545455,16.3638034 L9.81818183,16.3638034 L9.81818183,16.3638034 Z M17.4545454,16.3638034 C18.0569727,16.3638956 18.5452875,16.8522853 18.5452875,17.4547125 C18.5452875,18.0571397 18.0569727,18.5455294 17.4545454,18.5456216 L14.1818182,18.5456216 C13.5793909,18.5455294 13.0910761,18.0571397 13.0910761,17.4547125 C13.0910761,16.8522853 13.5793909,16.3638956 14.1818182,16.3638034 L17.4545454,16.3638034 L17.4545454,16.3638034 Z M9.81818183,12.000167 C10.4206091,12.0002593 10.9089239,12.4886489 10.9089239,13.0910761 C10.9089239,13.6935034 10.4206091,14.181893 9.81818183,14.1819852 L6.54545455,14.1819852 C5.94302732,14.181893 5.45471246,13.6935034 5.45471246,13.0910761 C5.45471246,12.4886489 5.94302732,12.0002593 6.54545455,12.000167 L9.81818183,12.000167 L9.81818183,12.000167 Z M17.4545454,12.000167 C18.0569727,12.0002593 18.5452875,12.4886489 18.5452875,13.0910761 C18.5452875,13.6935034 18.0569727,14.181893 17.4545454,14.1819852 L14.1818182,14.1819852 C13.5793909,14.181893 13.0910761,13.6935034 13.0910761,13.0910761 C13.0910761,12.4886489 13.5793909,12.0002593 14.1818182,12.000167 L17.4545454,12.000167 L17.4545454,12.000167 Z M5.45454545,4.3648943 L2.18181817,4.36380339 L2.18181817,7.63653066 L21.8181818,7.63653066 L21.8181818,4.36380339 L18.5454546,4.36380339 C18.5453623,4.96623062 18.0569727,5.45454548 17.4545455,5.45454548 C16.8521182,5.45454548 16.3637286,4.96623062 16.3636364,4.36380339 L7.63636362,4.36380339 L7.62872728,4.49143975 C7.56055543,5.06459287 7.05772271,5.48545358 6.48152162,5.45162743 C5.90532053,5.41780127 5.4551857,4.94099616 5.45454545,4.36380339 L5.45454545,4.3648943 Z" id="形状"></path>
                </g>
            </g>
        </g>
    </g>
</svg>